<?xml version="1.0" standalone="no"?>
<!DOCTYPE svg PUBLIC "-//W3C//DTD SVG 20010904//EN"
 "http://www.w3.org/TR/2001/REC-SVG-20010904/DTD/svg10.dtd">
<svg version="1.0" xmlns="http://www.w3.org/2000/svg"
 width="1000.000000pt" height="1000.000000pt" viewBox="0 0 1000.000000 1000.000000"
 preserveAspectRatio="xMidYMid meet">
<metadata>
Created by potrace 1.15, written by Peter Selinger 2001-2017
</metadata>
<g transform="translate(0.000000,1000.000000) scale(0.100000,-0.100000)"
fill="#000000" stroke="none">
<path d="M4269 9676 c-2 -3 -86 -12 -184 -21 -371 -32 -670 -82 -910 -150
-121 -34 -151 -44 -205 -65 -30 -12 -67 -25 -81 -30 -14 -4 -34 -12 -45 -17
-10 -6 -62 -31 -114 -57 -215 -104 -343 -220 -411 -371 -30 -66 -33 -233 -6
-309 39 -108 110 -230 184 -315 95 -109 304 -301 328 -301 8 0 16 23 20 63 16
145 74 289 167 414 55 74 207 228 278 283 25 19 50 38 55 43 165 127 447 278
700 374 22 9 49 19 60 24 37 14 229 77 290 93 33 9 74 21 91 26 17 6 33 10 37
10 16 0 5 -36 -27 -89 -115 -189 -334 -636 -455 -926 -23 -55 -46 -109 -50
-120 -34 -79 -76 -184 -106 -265 -20 -52 -40 -104 -45 -115 -5 -11 -20 -51
-34 -90 -13 -38 -41 -115 -61 -170 -44 -121 -150 -441 -195 -585 -17 -58 -38
-123 -44 -145 -17 -53 -41 -137 -62 -210 -9 -33 -22 -80 -30 -105 -16 -53 -60
-220 -80 -302 -8 -32 -20 -84 -28 -115 -95 -386 -160 -752 -202 -1133 -23
-207 -23 -617 1 -770 46 -308 146 -519 295 -622 74 -52 107 -51 163 5 28 28
48 59 56 89 12 41 11 55 -10 134 -21 79 -24 112 -24 289 0 191 5 246 41 460
22 132 93 446 124 550 5 17 17 57 26 90 16 60 35 125 59 200 7 22 29 94 50
160 20 66 40 127 44 135 5 9 12 31 16 50 4 19 11 40 15 45 4 6 19 46 33 90 14
44 35 105 47 135 12 30 28 73 36 95 9 22 19 54 23 71 5 18 11 37 15 43 13 20
36 11 41 -16 37 -180 183 -626 265 -808 5 -11 21 -49 35 -85 34 -83 184 -389
245 -500 26 -47 60 -107 75 -135 69 -125 223 -375 261 -426 56 -74 137 -146
194 -172 32 -15 64 -22 111 -22 61 0 69 3 111 37 38 31 129 151 173 226 6 10
21 33 35 52 14 19 30 42 35 52 6 10 53 84 105 165 52 81 98 154 102 163 5 8
33 53 63 100 30 47 88 138 128 203 39 65 79 129 87 142 8 13 35 57 59 97 24
40 61 98 81 128 20 30 40 62 43 70 4 8 15 27 25 42 9 15 44 71 76 125 33 54
79 128 103 165 23 37 43 70 43 74 0 4 6 15 14 23 27 32 65 111 60 125 -10 25
-73 56 -114 56 -37 0 -43 -5 -97 -72 -32 -40 -60 -75 -63 -78 -4 -3 -51 -63
-105 -135 -55 -71 -102 -132 -106 -135 -4 -3 -40 -48 -80 -101 -142 -185 -427
-532 -504 -615 -5 -6 -34 -38 -64 -72 -29 -34 -59 -62 -66 -62 -7 0 -32 26
-57 57 -45 58 -168 240 -168 249 0 2 -12 23 -27 47 -38 59 -51 80 -59 97 -4 8
-17 31 -29 50 -48 77 -195 363 -278 540 -68 146 -86 186 -137 310 -28 69 -55
134 -60 145 -5 11 -19 45 -30 75 -12 30 -28 70 -36 88 -25 58 -20 66 49 86 95
28 179 56 214 72 17 8 38 14 46 14 9 0 18 4 21 9 3 5 17 12 31 15 71 18 499
230 635 316 8 5 58 35 110 66 169 103 420 278 590 413 52 42 97 78 100 81 3 3
28 23 55 45 28 22 70 58 94 80 25 22 74 67 110 100 259 235 467 491 583 717
77 149 135 366 125 465 -7 74 -37 164 -81 240 -39 68 -190 204 -256 229 -8 3
-26 11 -40 17 -145 64 -509 96 -687 61 -76 -15 -83 -19 -83 -41 0 -13 10 -40
23 -61 29 -46 82 -170 102 -237 8 -27 22 -100 30 -162 13 -99 13 -125 0 -232
-23 -184 -56 -299 -133 -461 -53 -112 -153 -275 -221 -360 -20 -24 -45 -56
-56 -70 -46 -59 -334 -342 -423 -416 -157 -130 -398 -304 -421 -304 -5 0 -11
-4 -13 -8 -10 -25 -385 -211 -506 -251 -51 -17 -101 -31 -111 -31 -11 0 -24
14 -34 38 -25 60 -29 91 -13 125 8 18 54 124 101 236 48 113 91 212 95 220 4
9 14 32 23 51 64 143 77 172 77 175 0 2 20 46 45 99 25 53 45 98 45 100 0 2
20 46 44 98 24 51 55 118 68 148 91 197 406 835 547 1103 49 95 70 144 66 158
-23 70 -156 136 -345 169 -173 31 -334 43 -625 47 -171 2 -313 2 -316 -1z"/>
<path d="M4645 2675 c-38 -8 -90 -23 -114 -35 -88 -44 -175 -146 -223 -265 -9
-22 -29 -74 -46 -115 -16 -41 -40 -100 -52 -130 -98 -240 -194 -339 -333 -340
-95 0 -94 -4 -25 170 16 41 36 89 43 105 7 17 23 55 34 85 12 30 26 64 31 75
5 11 19 44 30 73 28 73 81 154 124 188 42 34 43 47 14 127 l-21 59 -51 -5
c-70 -6 -129 -34 -198 -94 -36 -31 -78 -47 -313 -113 -279 -79 -407 -135 -484
-212 -62 -62 -84 -104 -100 -194 -18 -93 3 -195 54 -265 63 -85 195 -154 281
-147 l39 3 3 112 3 112 -50 22 c-63 27 -81 54 -81 122 0 47 4 57 33 84 51 48
104 71 242 106 33 9 79 20 101 26 23 6 46 11 53 11 15 0 14 -49 -2 -80 -7 -14
-24 -54 -37 -90 -13 -36 -30 -76 -37 -90 -7 -14 -13 -30 -13 -37 0 -6 -6 -24
-14 -40 -18 -36 -40 -88 -59 -138 -102 -274 -195 -448 -288 -537 -68 -66 -125
-90 -216 -91 -66 0 -78 3 -115 29 -64 45 -81 75 -86 148 -7 109 40 168 146
182 33 4 56 13 61 23 11 20 14 169 5 206 -7 27 -7 27 -78 23 -172 -11 -313
-118 -373 -285 -25 -69 -24 -222 2 -288 27 -70 47 -101 99 -155 59 -61 131
-99 230 -121 99 -23 134 -23 228 -4 258 53 423 223 563 575 9 25 21 54 26 65
5 11 13 32 19 48 12 33 40 35 81 7 43 -32 70 -75 85 -141 19 -81 17 -102 -44
-454 -9 -55 -16 -127 -16 -160 3 -114 68 -231 153 -275 59 -29 158 -53 197
-47 61 10 65 19 62 126 l-3 95 -41 9 c-60 11 -78 36 -82 115 -2 37 1 94 8 127
32 165 43 249 47 349 6 128 -6 180 -54 243 -18 24 -31 49 -27 54 3 6 35 24 71
40 170 76 276 220 407 549 29 73 75 163 95 187 33 40 92 64 138 57 41 -6 42
-5 58 31 8 21 19 61 24 89 4 28 10 58 12 66 3 11 -11 18 -51 26 -69 15 -89 15
-175 -1z"/>
<path d="M6758 2468 c-8 -13 -18 -34 -22 -48 -17 -59 -62 -150 -80 -162 -6 -4
-41 -8 -79 -8 l-67 0 -25 -56 c-36 -81 -34 -84 29 -84 61 0 86 -7 86 -24 0 -6
-29 -83 -65 -171 -36 -88 -82 -200 -101 -249 -20 -48 -59 -122 -87 -164 -65
-96 -174 -213 -192 -206 -14 6 -19 86 -31 439 -4 133 -2 201 9 260 8 44 12 86
9 92 -2 7 -23 18 -46 24 -22 6 -59 15 -81 21 -22 6 -59 14 -83 18 l-43 7 -76
-151 c-86 -172 -145 -284 -180 -339 -13 -21 -28 -48 -34 -60 -28 -64 -154
-234 -219 -296 -102 -97 -192 -93 -176 8 6 42 40 148 65 206 10 22 26 60 35
85 10 25 24 59 31 75 7 17 21 50 30 75 9 25 21 53 26 62 5 10 15 35 23 55 7
21 27 75 44 121 29 77 30 82 12 82 -10 0 -22 -4 -25 -10 -3 -5 -12 -10 -20
-10 -8 0 -26 -5 -42 -12 -66 -26 -190 -70 -215 -75 -21 -4 -30 1 -44 23 -86
140 -250 164 -409 62 -43 -27 -135 -123 -157 -162 -39 -69 -110 -219 -119
-248 -51 -172 -61 -228 -62 -328 -1 -137 22 -185 115 -243 70 -43 244 -4 329
75 8 7 27 24 41 36 l26 24 41 -56 c56 -75 98 -96 198 -96 224 0 416 179 628
584 42 80 82 146 89 146 10 0 15 -39 20 -150 11 -223 -16 -357 -75 -375 -11
-4 -42 -4 -68 0 -43 6 -52 3 -102 -29 -89 -57 -88 -55 -44 -93 63 -54 134 -76
260 -81 123 -4 187 9 290 60 61 31 134 82 148 105 4 7 19 13 31 13 24 0 36
-17 36 -50 0 -27 56 -87 101 -111 49 -24 165 -26 234 -2 103 35 217 121 308
234 62 77 147 213 147 235 0 25 -26 50 -61 59 -23 6 -30 1 -58 -40 -17 -25
-31 -48 -31 -51 0 -8 -89 -123 -130 -168 -81 -89 -185 -130 -223 -88 -18 20
-24 97 -8 106 5 3 12 22 16 42 3 20 13 52 22 73 9 20 19 45 24 56 9 22 10 24
129 325 45 113 88 215 96 227 12 19 24 23 85 25 63 3 72 6 84 28 29 53 44 93
39 101 -3 5 -29 9 -58 9 -36 0 -58 5 -66 15 -13 15 -4 45 55 181 8 18 11 35 8
38 -4 3 -68 6 -144 6 -131 0 -137 -1 -151 -22z m-1734 -612 c21 -18 29 -35 33
-68 5 -42 -4 -74 -52 -183 -7 -16 -25 -59 -39 -95 -35 -85 -70 -134 -120 -171
-80 -59 -154 -59 -174 0 -26 75 48 303 136 421 84 112 156 144 216 96z"/>
</g>
</svg>
